Coordinates
version=1
nRows=21
nColumns=12
inDegrees=yes

Units are S.I. units (second, meters, Newtons, ...)
Angles are in degrees

endheader
time	SC_y	SC_z	SC_x	AC_y	AC_z	AC_x	GH_y	GH_z	GH_yy	EL_x	PS_y
       0.0              -38.13          38.15          75.68          33.85         -7.059         -9.154         -119.1          30.37          107.5          68.98          147.0
   0.02691              -38.12          38.15          75.67          33.85          -7.06         -9.151         -119.1          30.37          107.4          68.99          147.0
   0.05382              -38.12          38.14          75.66          33.85         -7.062         -9.147         -119.0          30.37          107.4           69.0          147.0
   0.08073              -38.12          38.14          75.65          33.85         -7.064         -9.142         -119.0          30.37          107.4          69.01          147.0
    0.1076              -38.12          38.13          75.63          33.85         -7.066         -9.138         -119.0          30.36          107.4          69.03          147.0
    0.1345              -38.11          38.12          75.62          33.85         -7.068         -9.133         -118.9          30.36          107.3          69.04          146.9
    0.1615              -38.11          38.12          75.61          33.85          -7.07         -9.128         -118.9          30.36          107.3          69.05          146.9
    0.1884              -38.11          38.11          75.59          33.86         -7.072         -9.123         -118.8          30.36          107.3          69.07          146.9
    0.2153               -38.1           38.1          75.57          33.86         -7.075         -9.117         -118.7          30.36          107.2          69.08          146.9
    0.2422               -38.1          38.09          75.56          33.86         -7.077         -9.111         -118.7          30.35          107.2           69.1          146.9
    0.2691               -38.1          38.09          75.54          33.86          -7.08         -9.104         -118.6          30.35          107.1          69.12          146.9
     0.296              -38.09          38.08          75.52          33.86         -7.083         -9.097         -118.5          30.35          107.1          69.14          146.8
    0.3229              -38.09          38.07          75.49          33.86         -7.086         -9.089         -118.5          30.34          107.0          69.16          146.8
    0.3498              -38.08          38.06          75.47          33.86          -7.09          -9.08         -118.4          30.34          107.0          69.18          146.8
    0.3767              -38.08          38.04          75.44          33.86         -7.094         -9.071         -118.3          30.34          106.9          69.21          146.8
    0.4036              -38.07          38.03          75.42          33.86         -7.098         -9.061         -118.2          30.33          106.9          69.23          146.8
    0.4305              -38.06          38.02          75.39          33.86         -7.103         -9.051         -118.1          30.33          106.8          69.26          146.7
    0.4575              -38.06           38.0          75.35          33.86         -7.108         -9.039         -118.0          30.32          106.7          69.29          146.7
    0.4844              -38.05          37.99          75.32          33.86         -7.113         -9.026         -117.8          30.32          106.6          69.33          146.7
    0.5113              -38.04          37.97          75.28          33.87         -7.119         -9.012         -117.7          30.31          106.5          69.37          146.6
    0.5382              -38.03          37.95          75.23          33.87         -7.125         -8.997         -117.5          30.31          106.5          69.41          146.6
